<?xml version="1.0" encoding="UTF-8" standalone="no"?>
<!DOCTYPE svg PUBLIC "-//W3C//DTD SVG 1.1//EN"
 "http://www.w3.org/Graphics/SVG/1.1/DTD/svg11.dtd">
<!-- Generated by graphviz version 2.26.3 (20100126.1600)
 -->
<!-- Title: G Pages: 1 -->
<svg width="788pt" height="504pt"
 viewBox="0.00 0.00 787.50 504.00" xmlns="http://www.w3.org/2000/svg" xmlns:xlink="http://www.w3.org/1999/xlink">
<g id="graph1" class="graph" transform="scale(0.984375 0.984375) rotate(0) translate(4 508)">
<title>G</title>
<polygon fill="white" stroke="white" points="-4,5 -4,-508 797,-508 797,5 -4,5"/>
<!-- Person -->
<g id="Person" class="node"><title>Person</title>
<polygon fill="none" stroke="black" points="205.684,-39 205.684,-143 349.684,-143 349.684,-39 205.684,-39"/>
<text text-anchor="start" x="213.684" y="-126.4" font-family="Times Roman,serif" font-size="14.00">Person</text>
<polyline fill="none" stroke="black" points="205.684,-117 349.684,-117 "/>
<text text-anchor="start" x="213.684" y="-100.4" font-family="Times Roman,serif" font-size="14.00">+ id : string</text>
<polyline fill="none" stroke="black" points="205.684,-91 349.684,-91 "/>
<text text-anchor="start" x="213.684" y="-74.4" font-family="Times Roman,serif" font-size="14.00">+ name : string</text>
<polyline fill="none" stroke="black" points="205.684,-65 349.684,-65 "/>
<text text-anchor="start" x="213.684" y="-48.4" font-family="Times Roman,serif" font-size="14.00">+ birthdate : Date</text>
</g>
<!-- Insurance -->
<g id="Insurance" class="node"><title>Insurance</title>
<polygon fill="none" stroke="black" points="45.1842,-254 45.1842,-358 170.184,-358 170.184,-254 45.1842,-254"/>
<text text-anchor="start" x="53.1842" y="-341.4" font-family="Times Roman,serif" font-size="14.00">Insurance</text>
<polyline fill="none" stroke="black" points="45.1842,-332 170.184,-332 "/>
<text text-anchor="start" x="53.1842" y="-315.4" font-family="Times Roman,serif" font-size="14.00">+ name : string</text>
<polyline fill="none" stroke="black" points="45.1842,-306 170.184,-306 "/>
<text text-anchor="start" x="53.1842" y="-289.4" font-family="Times Roman,serif" font-size="14.00">+ id : string</text>
<polyline fill="none" stroke="black" points="45.1842,-280 170.184,-280 "/>
<text text-anchor="start" x="53.1842" y="-263.4" font-family="Times Roman,serif" font-size="14.00">+ price : string</text>
</g>
<!-- Person&#45;&gt;Insurance -->
<g id="edge3" class="edge"><title>Person&#45;&gt;Insurance</title>
<path fill="none" stroke="black" d="M236.532,-143.046C212.073,-173.979 180.944,-213.348 155.41,-245.641"/>
<polygon fill="black" stroke="black" points="152.504,-243.674 149.047,-253.689 157.995,-248.015 152.504,-243.674"/>
<text text-anchor="middle" x="227.596" y="-143.933" font-family="Times Roman,serif" font-size="14.00">0..1</text>
</g>
<!-- Pet -->
<g id="Pet" class="node"><title>Pet</title>
<polygon fill="none" stroke="black" points="385.184,-280 385.184,-332 510.184,-332 510.184,-280 385.184,-280"/>
<text text-anchor="start" x="393.184" y="-315.4" font-family="Times Roman,serif" font-size="14.00">Pet</text>
<polyline fill="none" stroke="black" points="385.184,-306 510.184,-306 "/>
<text text-anchor="start" x="393.184" y="-289.4" font-family="Times Roman,serif" font-size="14.00">+ name : string</text>
</g>
<!-- Person&#45;&gt;Pet -->
<g id="edge5" class="edge"><title>Person&#45;&gt;Pet</title>
<path fill="none" stroke="black" d="M318.836,-143.046C350.495,-183.084 393.328,-237.256 420.738,-271.921"/>
<polygon fill="black" stroke="black" points="418.072,-274.192 427.019,-279.865 423.563,-269.85 418.072,-274.192"/>
<text text-anchor="middle" x="321.143" y="-149.176" font-family="Times Roman,serif" font-size="14.00">0..n</text>
</g>
<!-- PetLover -->
<g id="PetLover" class="node"><title>PetLover</title>
<polygon fill="none" stroke="black" points="583.684,-26 583.684,-156 735.684,-156 735.684,-26 583.684,-26"/>
<text text-anchor="start" x="591.684" y="-139.4" font-family="Times Roman,serif" font-size="14.00">PetLover</text>
<polyline fill="none" stroke="black" points="583.684,-130 735.684,-130 "/>
<text text-anchor="start" x="591.684" y="-113.4" font-family="Times Roman,serif" font-size="14.00">+ name : string</text>
<polyline fill="none" stroke="black" points="583.684,-104 735.684,-104 "/>
<text text-anchor="middle" x="659.684" y="-87.4" font-family="Times Roman,serif" font-size="14.00">+insurancePrice:int</text>
<polyline fill="none" stroke="black" points="583.684,-78 735.684,-78 "/>
<text text-anchor="start" x="591.684" y="-61.4" font-family="Times Roman,serif" font-size="14.00">+ petCount : string</text>
<polyline fill="none" stroke="black" points="583.684,-52 735.684,-52 "/>
<text text-anchor="middle" x="659.684" y="-35.4" font-family="Times Roman,serif" font-size="14.00"> </text>
</g>
<!-- PetLover&#45;&gt;Person -->
<g id="edge13" class="edge"><title>PetLover:namex&#45;&gt;Person:namex</title>
<path fill="none" stroke="black" d="M529.888,-116.453C494.29,-134.626 329.592,-135.969 293.632,-118.419"/>
<polygon fill="black" stroke="black" points="532.532,-118.748 536.684,-109 527.36,-114.031 532.532,-118.748"/>
<polygon fill="black" stroke="black" points="296.074,-115.907 286.684,-111 290.965,-120.692 296.074,-115.907"/>
</g>
<!-- PetLover&#45;&gt;Insurance -->
<g id="edge11" class="edge"><title>PetLover:insurancePrice&#45;&gt;Insurance:price</title>
<path fill="none" stroke="black" d="M571.657,-91.1525C385.781,-96.8621 366.631,-261.073 180.82,-266.844"/>
<polygon fill="black" stroke="black" points="571.739,-94.6517 581.684,-91 571.632,-87.6525 571.739,-94.6517"/>
<polygon fill="black" stroke="black" points="180.629,-263.347 170.684,-267 180.737,-270.346 180.629,-263.347"/>
</g>
<!-- Dog -->
<g id="Dog" class="node"><title>Dog</title>
<polygon fill="none" stroke="black" points="218.184,-441 218.184,-493 373.184,-493 373.184,-441 218.184,-441"/>
<text text-anchor="start" x="226.184" y="-476.4" font-family="Times Roman,serif" font-size="14.00">Dog</text>
<polyline fill="none" stroke="black" points="218.184,-467 373.184,-467 "/>
<text text-anchor="start" x="226.184" y="-450.4" font-family="Times Roman,serif" font-size="14.00">+ walksPerDay : int</text>
</g>
<!-- Pet&#45;&gt;Dog -->
<g id="edge7" class="edge"><title>Pet&#45;&gt;Dog</title>
<path fill="none" stroke="black" d="M415.993,-339.568C387.585,-369.658 346.486,-413.19 320.433,-440.785"/>
<polygon fill="black" stroke="black" points="418.605,-341.9 422.924,-332.226 413.515,-337.094 418.605,-341.9"/>
</g>
<!-- Cat -->
<g id="Cat" class="node"><title>Cat</title>
<polygon fill="none" stroke="black" points="573.684,-449 573.684,-485 627.684,-485 627.684,-449 573.684,-449"/>
<text text-anchor="start" x="581.684" y="-463.4" font-family="Times Roman,serif" font-size="14.00">Cat</text>
</g>
<!-- Pet&#45;&gt;Cat -->
<g id="edge9" class="edge"><title>Pet&#45;&gt;Cat</title>
<path fill="none" stroke="black" d="M479.879,-339.878C511.425,-373.074 558.31,-422.41 583.384,-448.795"/>
<polygon fill="black" stroke="black" points="482.033,-337.064 472.607,-332.226 476.958,-341.886 482.033,-337.064"/>
</g>
</g>
</svg>
